<?xml version="1.0" encoding="UTF-8"?><svg xmlns="http://www.w3.org/2000/svg" width="1416" height="1416" style="font-family: Arial, sans-serif; width: 1416px; height: 885px;"><g class="path" style="cursor: move;"><path stroke="#4dac26" stroke-width="1.5" fill="none" d="M484.16,458.77L687.01,363.24"></path><path stroke="#4dac26" stroke-width="1.5" fill="white" class="arrowfront" d="M-1,0L15,5L15,-5Z" transform="translate(687.009642065225,363.24046418498375) rotate(154.78389026394933)"></path></g><g class="path" style="cursor: move;"><path stroke="#d01c8b" stroke-width="1.5" fill="none" d="M133.77,239.40L446.45,454.06"></path><path stroke="#d01c8b" stroke-width="1.5" fill="white" class="arrowfront" d="M-1,0L15,5L15,-5Z" transform="translate(446.4472266399639,454.0621367657137) rotate(214.4705511897178)"></path></g><g class="path" style="cursor: move;"><path stroke="#d01c8b" stroke-width="1.5" fill="none" d="M195.21,701.82L448.33,479.41"></path><path stroke="#d01c8b" stroke-width="1.5" fill="white" class="arrowfront" d="M-1,0L15,5L15,-5Z" transform="translate(448.33247034980053,479.411102695037) rotate(138.69443967592946)"></path></g><g class="path" style="cursor: move;"><path stroke="#d01c8b" stroke-width="1.5" fill="none" d="M1278.01,413.75L491.45,464.43"></path><path stroke="#d01c8b" stroke-width="1.5" fill="white" class="arrowfront" d="M-1,0L15,5L15,-5Z" transform="translate(491.4488006999756,464.4327676365297) rotate(-3.686915283681165)"></path></g><g class="path" style="cursor: move;"><path stroke="#d01c8b" stroke-width="1.5" fill="none" d="M845.93,800.59L484.55,479.53"></path><path stroke="#d01c8b" stroke-width="1.5" fill="white" class="arrowfront" d="M-1,0L15,5L15,-5Z" transform="translate(484.55486081289706,479.5265042639632) rotate(41.61971595454789)"></path></g><g class="path" style="cursor: move;"><path stroke="#d01c8b" stroke-width="1.5" fill="none" d="M794.26,88.24L716.51,335.20"></path><path stroke="#d01c8b" stroke-width="1.5" fill="white" class="arrowfront" d="M-1,0L15,5L15,-5Z" transform="translate(716.5051608092393,335.19516469633857) rotate(-72.52380947807475)"></path></g><g class="path" style="cursor: move;"><path stroke="#d01c8b" stroke-width="1.5" fill="none" d="M787.80,85.86L481.93,450.22"></path><path stroke="#d01c8b" stroke-width="1.5" fill="white" class="arrowfront" d="M-1,0L15,5L15,-5Z" transform="translate(481.92744948239977,450.22263036493734) rotate(-49.98758407259486)"></path></g><g class="path" style="cursor: move;"><path stroke="#d01c8b" stroke-width="1.5" fill="none" d="M137.45,233.74L684.95,349.82"></path><path stroke="#d01c8b" stroke-width="1.5" fill="white" class="arrowfront" d="M-1,0L15,5L15,-5Z" transform="translate(684.9503801923543,349.82424013161886) rotate(191.97080679522213)"></path></g><g class="path" style="cursor: move;"><path stroke="#d01c8b" stroke-width="1.5" fill="none" d="M196.78,703.15L689.25,366.10"></path><path stroke="#d01c8b" stroke-width="1.5" fill="white" class="arrowfront" d="M-1,0L15,5L15,-5Z" transform="translate(689.2463539864934,366.102483445232) rotate(145.61196744504673)"></path></g><g class="path" style="cursor: move;"><path stroke="#d01c8b" stroke-width="1.5" fill="none" d="M1278.09,410.90L734.14,356.47"></path><path stroke="#d01c8b" stroke-width="1.5" fill="white" class="arrowfront" d="M-1,0L15,5L15,-5Z" transform="translate(734.1438495109147,356.4747170053614) rotate(5.713310682747839)"></path></g><g class="path" style="cursor: move;"><path stroke="#d01c8b" stroke-width="1.5" fill="none" d="M854.43,796.85L716.66,373.39"></path><path stroke="#d01c8b" stroke-width="1.5" fill="white" class="arrowfront" d="M-1,0L15,5L15,-5Z" transform="translate(716.6570596076358,373.3873884490491) rotate(71.97801160289566)"></path></g><g class="path" style="cursor: move;"><path stroke="#4dac26" stroke-width="1.5" fill="none" d="M486.06,469.03L754.36,519.98"></path><path stroke="#4dac26" stroke-width="1.5" fill="white" class="arrowfront" d="M-1,0L15,5L15,-5Z" transform="translate(754.360561245467,519.9776333228593) rotate(190.7515509937183)"></path></g><g class="path" style="cursor: move;"><path stroke="#d01c8b" stroke-width="1.5" fill="none" d="M772.07,509.86L718.22,372.94"></path><path stroke="#d01c8b" stroke-width="1.5" fill="white" class="arrowfront" d="M-1,0L15,5L15,-5Z" transform="translate(718.2218241769344,372.9392318262153) rotate(68.52982400331092)"></path></g><g class="path" style="cursor: move;"><path stroke="#d01c8b" stroke-width="1.5" fill="none" d="M798.89,88.79L779.93,504.00"></path><path stroke="#d01c8b" stroke-width="1.5" fill="white" class="arrowfront" d="M-1,0L15,5L15,-5Z" transform="translate(779.9263372533115,503.998739920582) rotate(-87.3851358514797)"></path></g><g class="path" style="cursor: move;"><path stroke="#d01c8b" stroke-width="1.5" fill="none" d="M135.79,237.05L756.41,515.28"></path><path stroke="#d01c8b" stroke-width="1.5" fill="white" class="arrowfront" d="M-1,0L15,5L15,-5Z" transform="translate(756.4118199114642,515.2764880394959) rotate(204.14643473857404)"></path></g><g class="path" style="cursor: move;"><path stroke="#d01c8b" stroke-width="1.5" fill="none" d="M199.82,707.23L755.25,530.49"></path><path stroke="#d01c8b" stroke-width="1.5" fill="white" class="arrowfront" d="M-1,0L15,5L15,-5Z" transform="translate(755.2460684437151,530.4910530437514) rotate(162.34924141974176)"></path></g><g class="path" style="cursor: move;"><path stroke="#d01c8b" stroke-width="1.5" fill="none" d="M1278.56,416.28L803.16,519.40"></path><path stroke="#d01c8b" stroke-width="1.5" fill="white" class="arrowfront" d="M-1,0L15,5L15,-5Z" transform="translate(803.1569737823137,519.4015477955131) rotate(-12.238951586786673)"></path></g><g class="path" style="cursor: move;"><path stroke="#d01c8b" stroke-width="1.5" fill="none" d="M855.17,796.70L785.23,543.29"></path><path stroke="#d01c8b" stroke-width="1.5" fill="white" class="arrowfront" d="M-1,0L15,5L15,-5Z" transform="translate(785.2269583756076,543.2883883161505) rotate(74.56935971575554)"></path></g><g transform="translate(709.2943557850097,354.31052465041444)" style="cursor: move; touch-action: none;"><path fill-opacity="0.7" stroke-width="2" z-index="1" d="M 0 0 m 20, 0 a 20,15 0 1,1 -40,0 a 20,15 0 1,1 40,0" fill="#00a2e0" stroke="#000000"></path><rect class="textbg" fill="#ffffff" width="83.703125" height="17" x="-41.8046875" y="21"></rect><text class="nodelabel" y="35" text-anchor="middle">Polarization</text><path d="M-2,-6L2,-6L2,6L-2,6Z" fill="#000000"></path></g><g transform="translate(118.02126897391996,230.1604500443429)" style="cursor: move; touch-action: none;"><path fill-opacity="0.7" stroke-width="2" z-index="1" d="M 0 0 m 20, 0 a 20,15 0 1,1 -40,0 a 20,15 0 1,1 40,0" fill="#ff7777" stroke="#ff7777"></path><rect class="textbg" fill="#ffffff" width="29.5703125" height="17" x="-15.234375" y="21"></rect><text class="nodelabel" y="35" text-anchor="middle">Age</text></g><g transform="translate(466.51188016487686,465.8362206127342)" style="cursor: move; touch-action: none;"><path fill-opacity="0.7" stroke-width="2" z-index="1" d="M 0 0 m 20, 0 a 20,15 0 1,1 -40,0 a 20,15 0 1,1 40,0" fill="#bed403" stroke="#000000"></path><rect class="textbg" fill="#ffffff" width="102.3984375" height="17" x="-51.1484375" y="21"></rect><text class="nodelabel" y="35" text-anchor="middle">Internet usage</text><path d="M-4,-6L7,0L-4,6Z" fill="#000000"></path></g><g transform="translate(799.7033821166223,73.80187329168787)" style="cursor: move; touch-action: none;"><path fill-opacity="0.7" stroke-width="2" z-index="1" d="M 0 0 m 20, 0 a 20,15 0 1,1 -40,0 a 20,15 0 1,1 40,0" fill="#ff7777" stroke="#ff7777"></path><rect class="textbg" fill="#ffffff" width="54.0390625" height="17" x="-26.6875" y="21"></rect><text class="nodelabel" y="35" text-anchor="middle">Gender</text></g><g transform="translate(181.04182552036264,712.4071210272854)" style="cursor: move; touch-action: none;"><path fill-opacity="0.7" stroke-width="2" z-index="1" d="M 0 0 m 20, 0 a 20,15 0 1,1 -40,0 a 20,15 0 1,1 40,0" fill="#ff7777" stroke="#ff7777"></path><rect class="textbg" fill="#ffffff" width="37.453125" height="17" x="-18.6796875" y="21"></rect><text class="nodelabel" y="35" text-anchor="middle">Race</text></g><g transform="translate(1297.9585096345893,412.62578083339923)" style="cursor: move; touch-action: none;"><path fill-opacity="0.7" stroke-width="2" z-index="1" d="M 0 0 m 20, 0 a 20,15 0 1,1 -40,0 a 20,15 0 1,1 40,0" fill="#ff7777" stroke="#ff7777"></path><rect class="textbg" fill="#ffffff" width="71.265625" height="17" x="-35.5859375" y="21"></rect><text class="nodelabel" y="35" text-anchor="middle">Education</text></g><g transform="translate(778.8404190963957,523.9791388780941)" style="cursor: move; touch-action: none;"><path fill-opacity="0.7" stroke-width="2" z-index="1" d="M 0 0 m 20, 0 a 20,15 0 1,1 -40,0 a 20,15 0 1,1 40,0" fill="#00a2e0" stroke="#00a2e0"></path><rect class="textbg" fill="#ffffff" width="134.4140625" height="17" x="-67.15625" y="21"></rect><text class="nodelabel" y="35" text-anchor="middle">Online segregation</text></g><g transform="translate(859.9900979043191,811.2610792998888)" style="cursor: move; touch-action: none;"><path fill-opacity="0.7" stroke-width="2" z-index="1" d="M 0 0 m 20, 0 a 20,15 0 1,1 -40,0 a 20,15 0 1,1 40,0" fill="#ff7777" stroke="#ff7777"></path><rect class="textbg" fill="#ffffff" width="34" height="17" x="-17.1640625" y="21"></rect><text class="nodelabel" y="35" text-anchor="middle">Year</text></g></svg>